<?xml version='1.0' encoding='utf-8'?>
<svg xmlns="http://www.w3.org/2000/svg" enable-background="new 0 0 5000 975.0072" version="1.1" viewBox="0 0 5e3 975.01"> <path d="m2500 338.85s19.562-56.422 32.586-83.209c28.807-59.318 65.217-103.28 22.181-178.87l-54.767-76.766-54.767 76.766c-43.097 75.707-6.178 120.48 22.181 178.87 13.024 26.787 32.586 83.209 32.586 83.209z"/> <path d="m4981.7 234.85c-52.2-171.5-202.69-238.72-290.5-211.01-53.919 17.028-72.178 62.267-60.93 94.015 10.235 29.044 45.346 48.746 77.348 35.45 16.538-6.8788 31.992-30.781 21.558-53.789-4.4165-9.7283-12.102-18.114-22.381-21.72-8.7324-3.0515-20.834-2.1583-29.093 1.9612-8.145 4.0694-13.357 10.362-15.843 19.205-3.1445 10.689 0.0498 20.694 2.5947 31.188l-4.5161 0.5116c-3.543-2.2656-7.2856-4.6933-9.8306-8.1066-12.227-16.385-8.7368-49.595 18.663-69.288 24.776-17.81 57.861-20.784 87.203-15.492 116.63 21.026 210.81 168.31 213.9 295.18 0.8735 34.494-4.7407 67.325-10.778 101.1-2.8945-40.093-8.0591-74.645-23.978-112.02-43.003-101.06-175.18-188.88-317.9-126.66-109.55 47.73-145.8 158.84-109.23 241.37 31.728 71.744 124.02 119.97 200.98 84.72 60.538-27.74 85.307-96.462 60.056-148.68-21.566-44.664-78.151-60.727-117.32-40.064-30.13 15.873-44.916 53.704-26.148 85.596 16.177 27.472 49.338 31.453 71.459 17.406 11.104-7.0337 16.567-17.715 19.087-30.335 3.1938-16.026-1.3223-26.79-10.005-40.091 12.305-2.5252 27.456 11.899 34.582 23.035 17.298 27.036 9.6895 73.327-36.579 101.11-23.403 14.055-56.139 18.269-82.686 11.315-33.559-8.7927-65.247-35.67-82.188-65.808-37.356-66.452-11.123-162.65 73.28-208.99 167.26-91.819 353.83 93.666 302.05 261.74-23.554 76.419-91.544 141.02-160.96 177.26-214.31 111.87-454.65-18.652-505-34.479 12.686 13.014 53.386 35.79 94.114 78.353 82.562 86.355 147.56 194.65 261.31 244.52 29.118 12.765 56.913 21.293 88.975 21.637 73.711 0.7888 141.14-51.773 141.7-121.52 0.1997-27.568-7.5103-55.583-27.52-75.449-46.442-46.159-122.52-15.417-120.16 41.466 0.4995 12.056 4.9902 23.546 14.172 31.65 6.6367 5.8735 15.694 11.472 24.926 10.482 18.814-2.0211 31.314-16.866 27.546-35.565l-3.0947-12.253c5.5898-4.0845 5.9639-3.9423 12.925-3.5781 36.304 21.05 23.576 90.886-48.13 107.76-97.814 23.044-227.57-106.98-298.01-176.47-7.3359-7.2507-21.882-17.493-26.573-26.213 7.1357 0.1723 15.095 4.3065 21.782 6.6894l37.726 11.787c85.606 23.731 165.05 29.714 251.4 4.1093 111.01-32.92 203.5-110.23 258.39-212.17 47.057-87.408 50.226-197.02 21.632-290.87zm-331.15 699.31c123.5 27.857 171.08-74.161 137.88-122.43-7.9097-11.475-19.611-21.338-33.684-23.751-18.788-3.2261-31.288 4.012-46.159 14.072v-4.9254c5.0405-8.3585 13.648-13.196 21.583-18.488 13.124-4.4263 23.902-6.8264 37.601-3.2411 64.717 16.936 73.135 118.64-5.6143 161.46-35.829 19.499-82.188 20.574-120.86 9.2169-88.226-25.906-156.69-93.79-218.54-158.47-13.473-14.102-33.01-30.031-42.292-47.05 29.764 14.557 138.62 163.94 270.09 193.6z"/> <path d="m18.322 234.85c52.199-171.5 202.69-238.72 290.5-211.01 53.919 17.028 72.178 62.267 60.93 94.015-10.235 29.044-45.346 48.746-77.348 35.45-16.538-6.8788-31.992-30.781-21.557-53.789 4.4162-9.7283 12.101-18.114 22.38-21.72 8.7328-3.0515 20.834-2.1583 29.093 1.9612 8.1449 4.0694 13.357 10.362 15.843 19.205 3.1443 10.689-0.0498 20.694-2.5947 31.188l4.5159 0.5116c3.5433-2.2656 7.2859-4.6933 9.8308-8.1066 12.227-16.385 8.7368-49.595-18.663-69.288-24.776-17.81-57.861-20.784-87.203-15.492-116.63 21.026-210.81 168.31-213.9 295.18-0.8734 34.494 4.7411 67.325 10.778 101.1 2.8947-40.093 8.0592-74.645 23.978-112.02 43.003-101.06 175.18-188.88 317.9-126.66 109.55 47.73 145.8 158.84 109.23 241.37-31.728 71.744-124.02 119.97-200.98 84.72-60.538-27.74-85.307-96.462-60.056-148.68 21.566-44.664 78.151-60.727 117.32-40.064 30.13 15.873 44.916 53.704 26.148 85.596-16.177 27.472-49.338 31.453-71.459 17.406-11.103-7.0337-16.567-17.715-19.087-30.335-3.1941-16.026 1.3223-26.79 10.005-40.091-12.305-2.5252-27.456 11.899-34.582 23.035-17.299 27.036-9.6895 73.327 36.578 101.11 23.403 14.055 56.139 18.269 82.686 11.315 33.558-8.7927 65.246-35.67 82.188-65.808 37.356-66.452 11.123-162.65-73.28-208.99-167.26-91.819-353.83 93.666-302.05 261.74 23.554 76.419 91.544 141.02 160.96 177.26 214.31 111.87 454.65-18.652 505-34.479-12.687 13.014-53.386 35.79-94.114 78.353-82.562 86.355-147.56 194.65-261.31 244.52-29.118 12.765-56.913 21.293-88.974 21.637-73.712 0.7888-141.14-51.773-141.7-121.52-0.1998-27.568 7.5101-55.583 27.521-75.449 46.442-46.159 122.52-15.417 120.16 41.466-0.4992 12.056-4.9902 23.546-14.172 31.65-6.6367 5.8735-15.694 11.472-24.926 10.482-18.813-2.0211-31.313-16.866-27.546-35.565l3.0945-12.253c-5.5895-4.0845-5.9637-3.9423-12.925-3.5781-36.304 21.05-23.576 90.886 48.13 107.76 97.814 23.044 227.57-106.98 298.01-176.47 7.3358-7.2507 21.882-17.493 26.573-26.213-7.136 0.1723-15.096 4.3065-21.782 6.6894l-37.726 11.787c-85.606 23.731-165.05 29.714-251.4 4.1093-111.01-32.92-203.5-110.23-258.39-212.17-47.057-87.408-50.226-197.02-21.632-290.87zm331.15 699.31c-123.5 27.857-171.08-74.161-137.88-122.43 7.9097-11.475 19.611-21.338 33.684-23.751 18.788-3.2261 31.288 4.012 46.159 14.072v-4.9254c-5.0405-8.3585-13.648-13.196-21.583-18.488-13.124-4.4263-23.902-6.8264-37.601-3.2411-64.717 16.936-73.136 118.64 5.6139 161.46 35.829 19.499 82.188 20.574 120.86 9.2169 88.226-25.906 156.69-93.79 218.54-158.47 13.473-14.102 33.01-30.031 42.292-47.05-29.764 14.557-138.62 163.94-270.09 193.6z"/> <path d="m2502.7 387.35c16.966-19.457 34.407-38.389 55.64-53.297 66.094-41.029 155.07-36.628 196.99-111.68 12.126-21.717 17.041-46.57 27.92-68.894-31.787-4.3638-66.07-10.517-98.206-6.5895-53.12 9.5612-96.834 37.488-127.55 81.996-31.638 45.84-49.253 103.3-54.792 158.46z"/> <path d="m2497.3 387.35c-16.966-19.457-34.407-38.389-55.64-53.297-66.094-41.029-155.07-36.628-196.99-111.68-12.126-21.717-17.041-46.57-27.92-68.894 31.787-4.3638 66.07-10.517 98.206-6.5895 53.12 9.5612 96.834 37.488 127.55 81.996 31.638 45.84 49.253 103.3 54.792 158.46z"/> <path d="m3513.6 339.74c5.3396 0.3918 9.1567-0.9207 14.197-2.6348 32.661-6.7866 64.248-8.8651 97.582-7.1135 77.747 4.0845 159.01 26.919 210.21-51.094 27.221-41.474 26.905-90.181 13.623-117.43l-2.2202-1.3773c-20.298 33.713-33.108 78.36-118.09 99.292-63.001 15.517-121.58 20.554-179.75 52.654-11.827 6.5223-28.144 16.278-35.555 27.7z"/> <path d="m1486.4 339.74c-5.3394 0.3918-9.1567-0.9207-14.197-2.6348-32.66-6.7866-64.248-8.8651-97.582-7.1135-77.747 4.0845-159.01 26.919-210.21-51.094-27.221-41.474-26.905-90.181-13.623-117.43l2.2203-1.3773c20.298 33.713 33.108 78.36 118.09 99.292 63 15.517 121.58 20.554 179.74 52.654 11.827 6.5223 28.144 16.278 35.555 27.7z"/> <path d="m2759.4 259.68c-28.77 42.007 3.0959 81.308 34.906 73.725 8.5085-2.0311 17.69-9.394 22.057-16.939 11.877-20.602-9.0823-40.046 25.126-49.872 20.46-5.8784 41.767-0.6761 59.931 9.4863 52.178 29.195 80.498 111.56 37.476 185.27-38.274 65.663-113.33 108.32-185.26 126.84-119.63 30.819-182.82-67.269-142.97-133.92 36.141-60.353 117.9-55.085 153.27-0.257 5.5889 12.922 11.003 25.527 10.978 39.889 2.969-1.9561 2.9446-1.6268 3.6428-5.075 4.6406-22.725-1.6465-39.392-14.347-58.23-30.224-44.829-94.369-59.507-145.94-23.426-79.509 55.683-43.746 185.51 77.273 201.19 68.016 8.8077 154.55-26.572 207.54-67.716 138.83-107.8 113.45-309.2-37.601-323.92l-28.918 0.0125c-30.54 5.796-58.758 16.063-77.172 42.94z"/> <path d="m2240.6 259.68c28.77 42.007-3.0959 81.308-34.906 73.725-8.5085-2.0311-17.69-9.394-22.057-16.939-11.877-20.602 9.0823-40.046-25.126-49.872-20.46-5.8784-41.767-0.6761-59.931 9.4863-52.178 29.195-80.498 111.56-37.476 185.27 38.274 65.663 113.33 108.32 185.26 126.84 119.63 30.819 182.82-67.269 142.97-133.92-36.141-60.353-117.9-55.085-153.27-0.257-5.5889 12.922-11.003 25.527-10.978 39.889-2.969-1.9561-2.9446-1.6268-3.6428-5.075-4.6406-22.725 1.6465-39.392 14.347-58.23 30.224-44.829 94.369-59.507 145.94-23.426 79.509 55.683 43.746 185.51-77.273 201.19-68.016 8.8077-154.55-26.572-207.54-67.716-138.83-107.8-113.45-309.2 37.601-323.92l28.918 0.0125c30.54 5.796 58.758 16.063 77.172 42.94z"/> <path d="m4562.5 589.18c7.5103-24.914-0.2495-40.675-11.652-62.237-8.3833 17.116-16.143 32.434-31.114 44.916-114.2 95.334-315.25-31.98-420.82-86.881-32.76-17.029-67.617-31.535-101.82-45.435-208.88-84.836-424.57-107.16-640.79-31.772-17.765 6.1978-43.963 13.279-58.584 25.535 19.604-0.6714 36.534-7.2408 55.49-11.642l66.893-12.343c449.41-70.8 657.6 151.63 962.78 247.52 22.58 7.1011 45.011 15.073 68.14 20.278 89.673 20.178 182.52 17.258 267.32-19.614 44.887-19.521 84.583-43.654 117.29-80.653 37.85-42.843 66.369-101.1 62.875-159.6-10.287-172.57-214.5-263.44-324.04-137.89-41.374 47.352-51.919 123.09 2.8696 170.35 6.9858 6.0331 17.69 13.833 27.221 13.74-6.687-9.9878-18.164-18.598-25.824-28.424-39.347-50.536-22.945-119.71 26.672-156.8 31.288-23.389 72.232-34.222 110.91-27.872 184.42 30.289 217.8 247.93 58.858 358.44-98.405 68.442-218.59 76.529-333.17 56.064 24.327-3.6802 49.477-7.0859 71.608-18.561 23.005-11.929 41.343-32.154 48.878-57.127z"/> <path d="m437.5 589.18c-7.5102-24.914 0.2496-40.675 11.652-62.237 8.3835 17.116 16.143 32.434 31.114 44.916 114.2 95.334 315.25-31.98 420.82-86.881 32.76-17.029 67.617-31.535 101.82-45.435 208.88-84.836 424.57-107.16 640.79-31.772 17.765 6.1978 43.963 13.279 58.584 25.535-19.604-0.6714-36.534-7.2408-55.49-11.642l-66.893-12.343c-449.41-70.8-657.6 151.63-962.78 247.52-22.58 7.1011-45.011 15.073-68.14 20.278-89.673 20.178-182.52 17.258-267.32-19.614-44.886-19.521-84.583-43.654-117.29-80.653-37.85-42.843-66.369-101.1-62.875-159.6 10.288-172.57 214.5-263.44 324.04-137.89 41.374 47.352 51.919 123.09-2.8693 170.35-6.986 6.0331-17.69 13.833-27.221 13.74 6.6866-9.9878 18.164-18.598 25.824-28.424 39.346-50.536 22.945-119.71-26.673-156.8-31.288-23.389-72.232-34.222-110.91-27.872-184.42 30.289-217.8 247.93-58.859 358.44 98.405 68.442 218.59 76.529 333.17 56.064-24.327-3.6802-49.477-7.0859-71.609-18.561-23.005-11.929-41.343-32.154-48.878-57.127z"/> <path d="m3396 370.38c38.649-14.152 104.14-30.782 119.59-74.416 4.3411-12.293 4.5161-26.667-1.2227-38.556-5.9661-12.386-21.139-31.146-33.683-32.436 1.7212 11.899 3.3931 21.807-4.217 32.142-16.18 21.921-67.679 29.896-101.4 57.674-18.888 15.552-32.436 37.454-45.96 57.536-7.0361 10.454-22.555 29.377-24.926 41.745 22.624-13.892 32.937-22.15 91.818-43.689z"/> <path d="m1604 370.38c-38.649-14.152-104.14-30.782-119.59-74.416-4.3412-12.293-4.5161-26.667 1.2227-38.556 5.9658-12.386 21.139-31.146 33.683-32.436-1.7214 11.899-3.3932 21.807 4.2169 32.142 16.18 21.921 67.679 29.896 101.4 57.674 18.888 15.552 32.436 37.454 45.96 57.536 7.036 10.454 22.555 29.377 24.926 41.745-22.624-13.892-32.937-22.15-91.819-43.689z"/> <path d="m4081.6 340.16c73.805-14.604 137.83-9.384 201.75 32.723 11.827 7.7921 21.882 22.538 33.559 28.748-16.019-53.135-46.06-100.3-96.286-127.11-80.949-43.211-171.5-33.458-250.98 10.828-60.084 33.468-70.09 49.35-150.88 66.137 98.809 38.243 153.95 17.917 262.83-11.323z"/> <path d="m918.37 340.16c-73.805-14.604-137.83-9.384-201.75 32.723-11.827 7.7921-21.882 22.538-33.559 28.748 16.018-53.135 46.059-100.3 96.285-127.11 80.95-43.211 171.5-33.458 250.98 10.828 60.084 33.468 70.09 49.35 150.88 66.137-98.809 38.243-153.95 17.917-262.83-11.323z"/> <path d="m2814.4 616.78c141.64-32.901 142.43-41.272 275.86-104.27 81.976-38.698 182.36-76.847 212.8-126.84 12.326-20.198 21.208-43.868 15.22-67.706-3.3689-13.378-10.779-27.997-23.454-34.784-7.5354-4.0395-16.293-4.3065-24.651-4.334-8.3584 2.1457-18.688 3.6379-25.126 9.7433l1.3972 2.7047c8.9001 2.7605 15.597 5.4902 19.586 14.424 4.3416 9.8057 2.5449 24.11-1.6714 33.584-23.978 53.622-93.74 95.983-141.42 126.23-170.01 107.86-206.14 97.297-308.54 151.25z"/> <path d="m2185.6 616.78c-141.64-32.901-142.43-41.272-275.86-104.27-81.976-38.698-182.36-76.847-212.81-126.84-12.326-20.198-21.208-43.868-15.22-67.706 3.369-13.378 10.779-27.997 23.454-34.784 7.5354-4.0395 16.293-4.3065 24.652-4.334 8.3583 2.1457 18.688 3.6379 25.126 9.7433l-1.3972 2.7047c-8.9003 2.7605-15.597 5.4902-19.586 14.424-4.3414 9.8057-2.5448 24.11 1.6715 33.584 23.978 53.622 93.74 95.983 141.42 126.23 170.01 107.86 206.14 97.297 308.54 151.25z"/> <path d="m2500 573.3c47.756 67.659 107.84 96.799 186.78 113.95 26.573 5.7187 54.293 7.7446 81.464 7.2306 334.53-6.2999 497.78-278.02 759.63-229.92 48.854 8.9773 90.072 26.161 126.3 60.892 58.178 55.751 37.472 122.28-16.867 118.82-10.704-0.6812-20.16-5.347-27.046-13.553-4.0176-4.828-5.4895-10.779-7.0115-16.747-2.6694-0.5016-4.1418-1.5695-6.4871 0.0148-7.9595 5.3544-12.151 13.196-13.748 22.598-4.45 26.04 23.061 49.109 51.424 53.756 72.451 11.883 127.55-82.221 62.851-163.57-45.086-56.671-126.28-81.464-195.34-89.014l-23.604-2.298c58.884-8.2562 118.22-5.0101 177.03 2.5324 196.86 25.243 373.99 112.56 531.03 231.12 49.502 37.381 93.915 86.976 121.93 142.45 27.511 54.482 36.042 102.62-15.12 136.97 8.7329 8.4682 16.991 9.6335 29.093 9.4139 41.667-0.7586 77.186-32.69 75.451-96.527-1.5718-59.538-37.95-102.49-79.493-141.43-108.51-101.69-239.13-176.85-378.1-227.77-222.78-81.632-455.62-96.179-681.58-14.876-126.93 45.673-214.97 119.7-394.3 155.07-95.536 18.846-220.48 17.284-290.9-48.776-23.903-22.423-41.094-52.234-41.992-85.534-3.3042-122.83 145-177.9 226.63-97.824 17.241 16.919 28.269 41.635 28.195 65.935-0.1689 72.394-82.574 109.69-116.12 72.429-4.0674-4.511-4.616-8.3809-4.4414-14.284 10.105-11.65 31.039-7.1758 30.715-28.661-0.125-7.8844-4.3167-15.908-10.305-20.919-7.2109-6.0058-15.071-7.3705-24.202-6.4048-40.216 4.2452-44.452 66.565-3.1438 97.171 59.535 44.067 161.19-17.936 144.46-120.27-13.683-84.03-109.75-115.98-171.99-104.5-41.768 7.6972-79.244 34.562-102.9 69.351-19.861 29.252-23.778 62.744-28.045 96.911-0.0825-0.6853-0.1658-1.3692-0.2498-2.0517-0.084 0.6825-0.1672 1.3664-0.2498 2.0517-4.2664-34.168-8.1836-67.659-28.045-96.911-23.653-34.789-61.129-61.653-102.9-69.351-61.448-11.33-158.17 19.662-171.99 104.5-16.726 102.35 84.956 164.32 144.46 120.27 41.848-31.005 36.564-92.979-3.1438-97.171-9.1318-0.9657-16.992 0.399-24.202 6.4048-5.988 5.0101-10.18 13.034-10.305 20.919-0.3245 21.485 20.609 17.011 30.715 28.661 0.1746 5.9033-0.374 9.7731-4.4414 14.284-33.44 37.137-115.95 0.2637-116.12-72.429-0.0745-24.3 10.954-49.016 28.195-65.935 81.721-80.166 229.93-24.971 226.63 97.824-2.6042 96.536-131.66 174-332.89 134.31-178.08-35.124-269.76-110.26-394.3-155.07-225.94-81.298-458.78-66.763-681.58 14.876-138.98 50.92-269.59 126.08-378.1 227.77-41.543 38.936-77.921 81.888-79.493 141.43-1.7342 63.834 33.784 95.768 75.451 96.527 12.101 0.2196 20.36-0.9457 29.092-9.4139-51.053-34.284-42.727-82.302-15.12-136.97 28.019-55.478 72.432-105.07 121.93-142.45 157.04-118.57 334.17-205.88 531.03-231.12 58.809-7.5425 118.14-10.789 177.03-2.5324l-23.604 2.298c-153.66 16.798-232.56 100.44-223.48 175.69 6.4969 53.556 48.228 83.913 90.995 76.898 28.269-4.6321 55.86-27.797 51.424-53.756-1.597-9.4014-5.7888-17.244-13.748-22.598-2.3453-1.5843-3.8175-0.5165-6.4871-0.0148-1.522 5.9681-2.994 11.919-7.0114 16.747-22.006 26.226-78.91 16.13-78.719-36.478 0.0999-27.032 15.969-50.738 34.806-68.789 36.229-34.731 77.447-51.915 126.3-60.892 261.55-48.052 425.51 223.62 759.63 229.92 27.171 0.514 54.892-1.5119 81.464-7.2306 78.944-17.146 139.03-46.286 186.78-113.95z"/> <path d="m3951.9 637.41c9.0071 2.837 21.782 5.4393 31.039 2.3005 3.3186-1.1304 6.113-3.2936 8.7578-5.5491 3.7673-8.1762 4.8154-12.236 1.7964-21.208-4.3665-13.024-16.143-25.684-25.949-35.18-34.407-33.304-79.194-58.522-122.66-77.901-34.557-15.4-71.534-24.891-108.79-31.001-10.954-1.7965-25.001-5.1024-35.854-1.8788 35.605 20.056 75.326 29.527 110.03 52.304 70.42 46.193 78.96 98.387 141.62 118.11z"/> <path d="m1048.1 637.41c-9.0071 2.837-21.782 5.4393-31.038 2.3005-3.3187-1.1304-6.1132-3.2936-8.7579-5.5491-3.7673-8.1762-4.8153-12.236-1.7963-21.208 4.3664-13.024 16.143-25.684 25.949-35.18 34.407-33.304 79.194-58.522 122.66-77.901 34.557-15.4 71.534-24.891 108.79-31.001 10.954-1.7965 25.001-5.1024 35.854-1.8788-35.605 20.056-75.326 29.527-110.03 52.304-70.42 46.193-78.96 98.387-141.62 118.11z"/> <path d="m3424.4 493.13c-51.773 2.1458-105.24 23.9-151.15 46.478-17.69 8.7127-39.023 18.78-52.546 33.504 23.114-2.9746 48.058-32.623 137.65-28.639 41.867 1.8615 81.938 12.006 112.93 42.087 15.718 15.263 16.99 31.311 38.624 31.533 10.554 0.1072 20.31-3.9372 27.795-11.375 10.654-10.574 11.852-22.82 11.627-37.132-20.461-47.511-71.923-78.652-124.93-76.456z"/> <path d="m1575.6 493.13c51.773 2.1458 105.24 23.9 151.15 46.478 17.69 8.7127 39.023 18.78 52.546 33.504-23.113-2.9746-48.058-32.623-137.65-28.639-41.868 1.8615-81.939 12.006-112.93 42.087-15.718 15.263-16.99 31.311-38.624 31.533-10.554 0.1072-20.31-3.9372-27.795-11.375-10.654-10.574-11.852-22.82-11.627-37.132 20.461-47.511 71.923-78.652 124.93-76.456z"/> <path d="m4049.4 603.94c12.151 29.454 22.032 60.024 8.7578 91.27-6.6616 15.674-20.035 28.299-35.879 34.507-37.624 14.739-76.305-14.043-88.5-48.569-2.5203-7.1035-3.0439-14.793-3.4685-22.266-9.481-0.9957-15.195 1.8488-22.655 8.1888-7.5103 6.4048-12.401 15.175-13.074 25.095-0.5989 8.9598 2.4702 17.835 5.1401 26.263 50.882 78.963 166.28 74.909 184.84-17.72 9.1333-45.525-16.785-73.361-35.156-96.769z"/> <path d="m950.63 603.94c-12.151 29.454-22.032 60.024-8.7577 91.27 6.6617 15.674 20.035 28.299 35.879 34.507 37.624 14.739 76.305-14.043 88.5-48.569 2.5203-7.1035 3.0439-14.793 3.4684-22.266 9.4811-0.9957 15.195 1.8488 22.655 8.1888 7.5101 6.4048 12.401 15.175 13.074 25.095 0.5989 8.9598-2.4701 17.835-5.1401 26.263-50.882 78.963-166.28 74.909-184.84-17.72-9.1333-45.525 16.784-73.361 35.156-96.769z"/> </svg>