<?xml version='1.0' encoding='utf-8'?>
<svg xmlns="http://www.w3.org/2000/svg" enable-background="new 0 0 5000 1081.455" version="1.1" viewBox="0 0 5e3 1081.5"> <path d="m2500 743.96c-41.566 46.76-67.929 102.7-64.598 166.81 2.856 55.046 20.105 102.41 49.62 148.65 3.98 6.234 8.985 16.835 14.35 21.657l0.628 0.373 0.628-0.373c5.365-4.822 10.37-15.423 14.35-21.657 29.515-46.238 46.764-93.603 49.62-148.65 3.331-64.118-23.032-120.06-64.598-166.81z"/> <path d="m961.71 448.85c91.499 59.469 193.99 10.793 264.31 8.621 62.279-1.929 113.47 24.686 152.17 72.309l20.608 28.231c-32.965-89.886-134.34-200.3-256.22-210.38-90.414-7.471-188.8 33.526-231.1-134.93-1.701-6.771-2.295-16.071-6.458-21.654-26.764 41.742-28.004 103.37-18.004 150.66 9.452 44.701 36.553 82.361 74.696 107.15z"/> <path d="m4038.3 448.85c-91.499 59.469-193.99 10.793-264.31 8.621-62.279-1.929-113.47 24.686-152.17 72.309l-20.608 28.231c32.965-89.886 134.34-200.3 256.22-210.38 90.414-7.471 188.8 33.526 231.1-134.93 1.701-6.771 2.295-16.071 6.458-21.654 26.764 41.742 28.003 103.37 18.003 150.66-9.452 44.701-36.553 82.361-74.695 107.15z"/> <path d="m2500 0.054-1.216-0.054c-49.586 34.058-82.679 103.22-93.315 160.94-15.046 81.685 4.18 163.32 43.519 235.53 18.71 34.34 38.74 64.842 51.012 102.36 12.272-37.521 32.302-68.024 51.012-102.36 39.338-72.211 58.564-153.84 43.519-235.53-10.635-57.715-43.729-126.88-93.315-160.94l-1.216 0.054z"/> <path d="m835 626.39c28.526-20.265 58.934-29.769 92.578-37.294-30.19-6.971-61.854-10.628-92.829-8.503-58.812 4.941-114.74 15.321-169.08 39.396-175.93 77.933-345.98 269.83-535.59 206.53 56.516 54.336 129.5 85.912 208.83 83.797 113.09-3.018 192.2-61.45 266.13-144.6 34.985-40.625 69.522-80.842 118.77-104.76-21.182 43.773-36.842 81.919-19.864 130.32 24.131 68.796 93.011 97.207 148.69 76.15 48.445-18.323 73.044-66.861 54.581-109.76-15.123-35.157-60.774-40.98-73.389-28.669 15.669 0.277 26.47 1.627 37.532 13.776 21.929 24.095-2.369 80.921-45.814 75.569-17.049-2.098-34.727-14.214-45.026-27.671-28.269-36.954-21.362-110.41 54.476-164.28z"/> <path d="m4165 626.39c-28.526-20.265-58.934-29.769-92.578-37.294 30.19-6.971 61.854-10.628 92.829-8.503 58.812 4.941 114.74 15.321 169.08 39.396 175.93 77.933 345.98 269.82 535.59 206.53-56.517 54.336-129.5 85.912-208.83 83.797-113.09-3.018-192.2-61.45-266.13-144.6-34.985-40.625-69.522-80.842-118.77-104.76 21.182 43.773 36.842 81.919 19.864 130.32-24.131 68.796-93.011 97.207-148.69 76.15-48.445-18.323-73.044-66.861-54.581-109.76 15.123-35.157 60.774-40.98 73.389-28.669-15.669 0.277-26.47 1.627-37.532 13.776-21.929 24.095 2.369 80.921 45.813 75.569 17.049-2.098 34.727-14.214 45.026-27.671 28.27-36.954 21.363-110.41-54.475-164.28z"/> <path d="m2470 573.15c-26.764-58.944-80.737-101.3-140.55-123.22-97.135-35.583-215.02-21.185-307.36 22.632-34.204 16.227-64.863 39.352-99.943 53.501-158.66 63.995-349.71 65.139-383.54 53.124-74.103-26.305-71.037-105.68-22.958-125.9 45.204-19.007 81.812 26.953 65.586 61.267-3.474 7.338-8.438 10.516-15.555 13.881l0.343 1.715c45.921-6.122 47.823-67.027 8.903-94.666-30.561-21.695-80.557-12.489-105.21 25.701-12.428 19.246-16.679 44.167-11.559 66.527 5.08 22.194 16.988 38.109 32.316 54.496l-122.36-14.937c-32.666-46.19-68.14-81.206-126.74-91.087-67.943-11.457-128.16 30.482-194.16 25.98-47.338-3.233-80.615-29.189-122.04-48.214-85.678-39.345-195.55-52.048-276.5 5.875-31.199 22.319-41.043 46.92-47.599 83.508 30.234-21.521 55.698-40.622 95.257-34.17 6.411 1.046 14.309 4.788 17.827 10.564 4.01 6.584 3.633 10.71 2.387 17.752-10.126 10.924-25.579 14.35-39.124 19.498l-61.236 24.048c-63.311 27.612-151.58 95.602-269.21 100.17-238.68 9.266-350.71-236.03-231.5-357.34 57.833-58.853 138.94-52.713 184.24-8.085 41.262 40.644 40.205 105.36-0.672 143.82-28.607 26.913-76.65 28.806-105.67-2.801-7.855-8.557-13.907-19.63-19.855-29.576 6.142 30.509 14.384 60.173 41.574 78.696 48.434 32.986 116.92 10.116 149.78-40.027 50.18-76.564 16.108-173.72-55.637-217.3-32.021-19.447-64.622-25.793-101.48-27.202-216.73 18.516-289.82 300.2-93.056 461.31 62.701 51.338 147.25 73.226 227.22 65.216 126.7-12.689 220.61-105.52 334.76-151.71 93.851-37.986 211.96-38.185 288.82-37.178 400.52 5.26 572.15 127.12 890.92 32.102-104 72.405-274.77 205.92-515.48 164.06-105.83-18.404-177.25-72.428-245.95-152.12 43.433 91.508 124.14 147.82 217.61 180.99 124.6 44.207 254.68 30.801 372.83-25.895 167.6-80.422 287.66-242.14 482-266.65 182.77-23.044 276.7 96.939 243.85 186.32-16.846 45.841-58.729 75.8-107.89 56.173-31.82-12.694-46.176-51.402-35.565-75.888 3.898-8.992 14.584-19.45 24.01-22.109 6.54-1.847 15.633-2.085 21.647 1.552 9.787 5.915 11.595 16.74 13.212 27.294 5.902 3.447 6.828 2.173 13.26 0.659 7.06-7.678 9.752-11.637 9.62-22.309-0.201-16.635-13.498-35.491-25.589-45.817-55.058-47.016-164.79-5.316-151.03 103.13 6.282 28.09 5.29 23.749 5.942 26.33 34.942 83.139 118.26 122.58 202.5 86.809 77.395-32.863 134.84-138.65 88.598-240.51zm-1331.6-33.117c-292.45-26.233-357.72 1.4-410.58 9.131 51.111-26.37 107.29-33.073 163.76-37.379 61.399-6.2 129.04 0.506 190.67 3.902 98.713 5.448 138.24 0.705 220.17 43.885l-164.02-19.539z"/> <path d="m2530 573.15c26.764-58.944 80.737-101.3 140.55-123.22 97.135-35.583 215.02-21.185 307.36 22.632 34.204 16.227 64.863 39.352 99.943 53.501 158.66 63.995 349.71 65.139 383.54 53.124 74.103-26.305 71.037-105.68 22.958-125.9-45.204-19.007-81.812 26.953-65.586 61.267 3.474 7.338 8.438 10.516 15.555 13.881l-0.343 1.715c-45.921-6.122-47.823-67.027-8.903-94.666 30.561-21.695 80.557-12.489 105.21 25.701 12.428 19.246 16.679 44.167 11.559 66.527-5.08 22.194-16.988 38.109-32.316 54.496l122.36-14.937c32.666-46.19 68.14-81.206 126.74-91.087 67.943-11.457 128.16 30.482 194.16 25.98 47.338-3.233 80.615-29.189 122.04-48.214 85.678-39.345 195.55-52.048 276.5 5.875 31.199 22.319 41.042 46.92 47.6 83.508-30.234-21.521-55.698-40.622-95.257-34.17-6.411 1.046-14.309 4.788-17.827 10.564-4.01 6.584-3.633 10.71-2.387 17.752 10.126 10.924 25.579 14.35 39.125 19.498l61.236 24.048c63.311 27.612 151.58 95.602 269.21 100.17 238.68 9.268 350.71-236.03 231.5-357.34-57.833-58.853-138.94-52.713-184.24-8.085-41.262 40.644-40.205 105.36 0.672 143.82 28.606 26.913 76.649 28.806 105.67-2.801 7.855-8.557 13.907-19.63 19.855-29.576-6.143 30.509-14.384 60.173-41.574 78.696-48.434 32.986-116.92 10.116-149.77-40.027-50.18-76.564-16.108-173.72 55.637-217.3 32.021-19.447 64.622-25.793 101.48-27.202 216.73 18.516 289.82 300.2 93.055 461.31-62.701 51.338-147.25 73.226-227.22 65.216-126.7-12.689-220.61-105.52-334.76-151.71-93.852-37.986-211.96-38.185-288.82-37.178-400.52 5.26-572.15 127.12-890.92 32.102 104 72.405 274.77 205.92 515.48 164.06 105.83-18.404 177.25-72.428 245.95-152.12-43.433 91.508-124.14 147.82-217.61 180.99-124.6 44.207-254.68 30.801-372.83-25.895-167.6-80.422-287.66-242.14-482-266.65-182.77-23.044-276.7 96.939-243.85 186.32 16.846 45.841 58.729 75.8 107.89 56.173 31.82-12.694 46.176-51.402 35.565-75.888-3.898-8.992-14.584-19.45-24.01-22.109-6.54-1.847-15.633-2.085-21.647 1.552-9.787 5.915-11.595 16.74-13.212 27.294-5.902 3.447-6.828 2.173-13.26 0.659-7.06-7.678-9.752-11.637-9.62-22.309 0.201-16.635 13.498-35.491 25.589-45.817 55.058-47.016 164.79-5.316 151.03 103.13-6.282 28.09-5.29 23.749-5.942 26.33-34.942 83.139-118.26 122.58-202.5 86.809-77.396-32.865-134.85-138.65-88.599-240.51zm1331.6-33.117c292.45-26.233 357.72 1.4 410.58 9.131-51.11-26.37-107.29-33.073-163.76-37.379-61.399-6.2-129.04 0.506-190.67 3.902-98.713 5.448-138.24 0.705-220.17 43.885l164.02-19.539z"/> </svg>